<?xml version="1.0" encoding="utf-8"?>
<!-- Generator: Adobe Illustrator 12.0.0, SVG Export Plug-In . SVG Version: 6.00 Build 51448)  -->
<!DOCTYPE svg PUBLIC "-//W3C//DTD SVG 1.1//EN" "http://www.w3.org/Graphics/SVG/1.1/DTD/svg11.dtd" [
	<!ENTITY ns_svg "http://www.w3.org/2000/svg">
	<!ENTITY ns_xlink "http://www.w3.org/1999/xlink">
]>
<svg  version="1.1" id="Layer_1" xmlns="&ns_svg;" xmlns:xlink="&ns_xlink;" width="359.939" height="76.222"
	 viewBox="0 0 359.939 76.222" overflow="visible" enable-background="new 0 0 359.939 76.222" xml:space="preserve">
<path fill-rule="evenodd" clip-rule="evenodd" d="M10.969,0c112.667,0,225.332,0,337.999,0c0.452,0.92,1.465,1.276,2.741,1.371
	c8.001,7.003-4.66,30.553,8.229,32.222c0,2.744,0,5.484,0,8.227c-13.208-0.67,0.329,23.553-7.543,31.537
	c-4.523,4.592-29.213,2.059-41.822,2.059c-87.722,0-172.34,0-261.896,0c-11.294,0-36.323,2.806-41.135-2.059
	C-0.3,65.432,12.745,40.155,0,41.82c0-2.743,0-5.483,0-8.227C13.573,32.067-1.985,3.23,10.969,0z M211.85,17.826
	c0.881,7.735,15.466,6.543,13.025-2.744c-0.675-2.576-3.021-4.946-8.227-3.427C213.105,12.688,211.367,13.597,211.85,17.826z
	 M70.617,26.738c-5.201-9.676-17.268-11.068-33.595-10.285c-3.166,12.832-0.481,31.513-1.371,46.622
	C64.446,70.194,81.791,47.528,70.617,26.738z M179.625,50.047c-2.252,1.635-3.944,3.828-6.855,4.801
	c2.874,8.598,14.879,11.764,22.626,8.227c13.005-5.939,6.748-28.919,8.227-46.622c-3.886,0-7.772,0-11.655,0
	C191.652,30.563,195.87,67.438,179.625,50.047z M235.16,27.424c-2.586-0.527-3.278,0.835-5.485,0.685c0,2.742,0,5.484,0,8.228
	c1.42,0.407,4.503-0.848,4.798,0.685c-2.871,18.197,3.42,32.151,20.569,26.053c0.03-3.233-1.205-5.194-1.373-8.227
	c-2.056,0-4.111,0-6.171,0c-3.228-3.627-1.707-12.004-2.056-18.511c2.971,0,5.942,0,8.913,0c-0.279-2.922,0.664-7.063-0.687-8.913
	c-2.533-0.438-6.829,0.887-8.227-0.686c0-2.971,0-5.942,0-8.912c-2.971,0-5.942,0-8.913,0
	C235.657,20.608,235.263,23.87,235.16,27.424z M106.953,30.851C90.951,13.302,67.384,44.56,83.642,59.646
	c5.695,5.284,19.803,6.637,26.053,0c-1.381-1.819-2.554-3.844-3.427-6.17c-5.84,2.656-16.049,3.3-16.455-4.798
	c6.855,0,13.712,0,20.568,0C111.561,41.418,110.37,34.599,106.953,30.851z M258.471,39.078c0.935,9.192,11.929,7.555,16.453,14.398
	c-3.208,5.002-10.389-0.05-13.711-1.37c-0.52,3.367-3.767,4.006-4.115,7.541c9.705,7.786,29.861,5.646,28.795-8.227
	c-0.739-9.61-11.767-7.552-16.453-14.397c2.478-4.365,7.923-0.427,10.969,0.686c1.934-1.951,3.836-3.934,4.799-6.857
	C275.881,23.414,257.131,25.93,258.471,39.078z M125.464,63.075c4.342,0,8.684,0,13.026,0c3.903-11.867,7.642-23.896,11.655-35.651
	c-3.657,0-7.313,0-10.969,0c-2.85,8.577-4.486,18.366-7.542,26.738c-2.021-9.178-4.183-18.212-6.855-26.738
	c-3.657,0-7.313,0-10.97,0C117.208,39.795,121.494,51.277,125.464,63.075z M212.536,28.109c0,11.655,0,23.311,0,34.966
	c3.883,0,7.77,0,11.655,0c0-11.884,0-23.768,0-35.651C220.419,27.766,215.206,26.668,212.536,28.109z M294.806,61.702
	c5.326,5.01,13.815,2.109,19.196-2.742c0.014,2.045-0.064,4.179,2.056,4.115c2.742,0,5.485,0,8.228,0c0-11.655,0-23.311,0-34.966
	c-2.67-1.441-7.884-0.343-11.653-0.685c-1.841,9.815,5.471,28.783-8.229,26.738c-2.885-6.254-0.681-17.6-1.369-26.053
	c-2.673-1.441-7.884-0.343-11.655-0.685C293.093,39.357,287.788,55.104,294.806,61.702z M152.888,49.363c5.713,0,11.427,0,17.14,0
	c1.314-1.657,0.432-5.51,0.685-8.227c-6.169,0-12.34,0-18.511,0C152.456,43.854,151.574,47.707,152.888,49.363z"/>
<path fill-rule="evenodd" clip-rule="evenodd" fill="#FFFFFF" d="M216.647,11.655c5.206-1.519,7.552,0.851,8.227,3.427
	c2.441,9.287-12.144,10.479-13.025,2.744C211.367,13.597,213.105,12.688,216.647,11.655z"/>
<path fill-rule="evenodd" clip-rule="evenodd" fill="#FFFFFF" d="M35.651,63.075c0.89-15.109-1.795-33.79,1.371-46.622
	c16.327-0.784,28.394,0.608,33.595,10.285C81.791,47.528,64.446,70.194,35.651,63.075z M47.306,26.053c0,9.369,0,18.738,0,28.109
	C65.402,58.14,66.819,21.646,47.306,26.053z"/>
<path fill-rule="evenodd" clip-rule="evenodd" fill="#FFFFFF" d="M191.967,16.453c3.883,0,7.769,0,11.655,0
	c-1.479,17.702,4.779,40.682-8.227,46.622c-7.747,3.538-19.752,0.371-22.626-8.227c2.911-0.974,4.603-3.167,6.855-4.801
	C195.87,67.438,191.652,30.563,191.967,16.453z"/>
<path fill-rule="evenodd" clip-rule="evenodd" fill="#FFFFFF" d="M236.53,17.826c2.971,0,5.942,0,8.913,0c0,2.97,0,5.941,0,8.912
	c1.397,1.573,5.693,0.248,8.227,0.686c1.351,1.85,0.407,5.991,0.687,8.913c-2.971,0-5.942,0-8.913,0
	c0.349,6.507-1.172,14.884,2.056,18.511c2.06,0,4.115,0,6.171,0c0.168,3.032,1.403,4.993,1.373,8.227
	c-17.148,6.098-23.439-7.856-20.569-26.053c-0.295-1.533-3.378-0.278-4.798-0.685c0-2.744,0-5.486,0-8.228
	c2.207,0.15,2.899-1.212,5.485-0.685C235.263,23.87,235.657,20.608,236.53,17.826z"/>
<path fill-rule="evenodd" clip-rule="evenodd" d="M47.306,54.162c0-9.371,0-18.74,0-28.109
	C66.819,21.646,65.402,58.14,47.306,54.162z"/>
<path fill-rule="evenodd" clip-rule="evenodd" fill="#FFFFFF" d="M110.381,48.677c-6.856,0-13.713,0-20.568,0
	c0.406,8.098,10.615,7.454,16.455,4.798c0.873,2.326,2.046,4.352,3.427,6.17c-6.25,6.637-20.357,5.284-26.053,0
	c-16.258-15.086,7.309-46.344,23.311-28.795C110.37,34.599,111.561,41.418,110.381,48.677z M89.813,41.137c3.657,0,7.313,0,10.969,0
	C102.506,32.966,88.55,34.425,89.813,41.137z"/>
<path fill-rule="evenodd" clip-rule="evenodd" fill="#FFFFFF" d="M285.208,30.851c-0.963,2.923-2.865,4.906-4.799,6.857
	c-3.046-1.113-8.491-5.051-10.969-0.686c4.687,6.846,15.714,4.787,16.453,14.397c1.066,13.873-19.09,16.013-28.795,8.227
	c0.349-3.534,3.596-4.173,4.115-7.541c3.322,1.32,10.503,6.372,13.711,1.37c-4.524-6.843-15.519-5.206-16.453-14.398
	C257.131,25.93,275.881,23.414,285.208,30.851z"/>
<path fill-rule="evenodd" clip-rule="evenodd" fill="#FFFFFF" d="M113.809,27.424c3.657,0,7.313,0,10.97,0
	c2.672,8.525,4.834,17.56,6.855,26.738c3.056-8.372,4.692-18.161,7.542-26.738c3.656,0,7.312,0,10.969,0
	c-4.013,11.754-7.752,23.784-11.655,35.651c-4.342,0-8.685,0-13.026,0C121.494,51.277,117.208,39.795,113.809,27.424z"/>
<path fill-rule="evenodd" clip-rule="evenodd" fill="#FFFFFF" d="M224.191,27.424c0,11.883,0,23.767,0,35.651
	c-3.886,0-7.772,0-11.655,0c0-11.655,0-23.311,0-34.966C215.206,26.668,220.419,27.766,224.191,27.424z"/>
<path fill-rule="evenodd" clip-rule="evenodd" fill="#FFFFFF" d="M291.378,27.424c3.771,0.342,8.982-0.756,11.655,0.685
	c0.688,8.453-1.516,19.798,1.369,26.053c13.7,2.045,6.389-16.922,8.229-26.738c3.77,0.342,8.983-0.756,11.653,0.685
	c0,11.655,0,23.311,0,34.966c-2.742,0-5.485,0-8.228,0c-2.12,0.064-2.042-2.07-2.056-4.115c-5.381,4.851-13.87,7.752-19.196,2.742
	C287.788,55.104,293.093,39.357,291.378,27.424z"/>
<path fill-rule="evenodd" clip-rule="evenodd" d="M100.782,41.137c-3.656,0-7.312,0-10.969,0
	C88.55,34.425,102.506,32.966,100.782,41.137z"/>
<path fill-rule="evenodd" clip-rule="evenodd" fill="#FFFFFF" d="M152.202,41.137c6.171,0,12.341,0,18.511,0
	c-0.252,2.717,0.629,6.57-0.685,8.227c-5.713,0-11.427,0-17.14,0C151.574,47.707,152.456,43.854,152.202,41.137z"/>
</svg>
